<svg version="1.1" id="Layer_1" xmlns="http://www.w3.org/2000/svg" xmlns:xlink="http://www.w3.org/1999/xlink" x="0px" y="0px"
	 width="100%" viewBox="0 0 3991 1444" enable-background="new 0 0 3991 1444" xml:space="preserve">
<path fill="#000000" opacity="1.000000" stroke="none" 
	d="
M2812.000000,1446.000000 
	C1874.666626,1446.000000 938.333313,1446.000000 2.000000,1446.000000 
	C2.000000,964.666687 2.000000,483.333344 2.000000,2.000000 
	C1332.666626,2.000000 2663.333252,2.000000 3994.000000,2.000000 
	C3994.000000,483.333344 3994.000000,964.666687 3994.000000,1446.000000 
	C3600.333252,1446.000000 3206.666748,1446.000000 2812.000000,1446.000000 
M473.795624,831.283813 
	C536.119324,1038.903564 746.818237,1164.102905 960.168884,1120.291504 
	C1184.573975,1074.210083 1330.856445,853.492798 1285.520020,628.689392 
	C1247.262695,438.987701 1080.194092,293.327637 875.043335,292.728363 
	C805.235229,292.524414 739.228394,309.196594 677.533936,342.162781 
	C502.104614,435.902618 416.547363,640.270996 473.795624,831.283813 
M3379.146484,787.441284 
	C3376.731201,783.585938 3374.315918,779.730591 3371.238770,774.818909 
	C3376.135498,772.167114 3380.064697,769.947266 3384.074219,767.882812 
	C3416.337402,751.269714 3439.874268,727.136292 3449.160889,691.172791 
	C3454.463135,670.639648 3455.097656,649.753418 3452.212891,628.704163 
	C3446.768799,588.974487 3426.936279,559.162720 3391.427246,540.236389 
	C3367.698975,527.589111 3341.882568,522.555603 3315.344727,522.304138 
	C3258.702637,521.767456 3202.052979,522.045044 3145.406250,521.990540 
	C3144.406738,521.989624 3143.403076,521.953064 3142.408203,522.025391 
	C3133.288818,522.687866 3127.691406,527.961975 3126.698975,537.035095 
	C3126.410645,539.671631 3126.582275,542.360962 3126.582275,545.026123 
	C3126.578369,660.653992 3126.577148,776.281921 3126.585449,891.909790 
	C3126.585693,894.906250 3126.389648,897.947083 3126.814941,900.890686 
	C3127.949219,908.745422 3132.899658,913.722656 3140.859375,913.852356 
	C3160.180420,914.167419 3179.513428,914.168335 3198.834961,913.865356 
	C3206.886230,913.739136 3211.737061,908.973572 3213.031738,901.071594 
	C3213.512207,898.140320 3213.404541,895.097534 3213.406738,892.105469 
	C3213.430664,860.782654 3213.380371,829.459656 3213.449463,798.137024 
	C3213.468994,789.259033 3214.296631,788.435913 3223.172852,788.373169 
	C3238.833496,788.262451 3254.504395,788.653442 3270.152832,788.205505 
	C3277.738770,787.988403 3282.357666,790.888367 3286.470459,797.132568 
	C3308.083252,829.944397 3330.102783,862.488220 3351.921631,895.164551 
	C3365.939453,916.158203 3363.148438,913.951355 3387.174316,914.005249 
	C3402.835693,914.040344 3418.498779,913.876099 3434.157715,914.070068 
	C3441.247559,914.157837 3447.646973,913.096375 3451.098145,906.113708 
	C3454.483398,899.264221 3452.037842,893.192566 3447.693848,887.609253 
	C3447.285156,887.084045 3446.904541,886.535889 3446.528564,885.986328 
	C3424.347412,853.551880 3402.168457,821.116394 3379.146484,787.441284 
M2287.988037,799.000000 
	C2287.988525,831.651367 2287.947510,864.302795 2288.013428,896.954041 
	C2288.035156,907.680847 2292.603027,913.643433 2302.072510,913.842346 
	C2321.387939,914.248230 2340.722656,914.202271 2360.040527,913.849915 
	C2368.891357,913.688538 2373.701416,908.088135 2374.151611,899.012573 
	C2374.266846,896.685852 2374.178467,894.348877 2374.178711,892.016602 
	C2374.180664,851.368225 2374.153076,810.719788 2374.201904,770.071472 
	C2374.215088,759.058411 2376.615723,756.654297 2387.750244,756.640869 
	C2431.730469,756.587769 2475.710693,756.588135 2519.690918,756.649353 
	C2530.385010,756.664246 2532.642334,758.966675 2532.961914,769.394958 
	C2533.022949,771.392151 2532.969482,773.392883 2532.969482,775.391968 
	C2532.969482,814.374451 2532.968018,853.356873 2532.972900,892.339355 
	C2532.973389,895.004272 2532.827881,897.687683 2533.081543,900.330688 
	C2533.841553,908.248596 2538.605469,913.649658 2546.485107,913.804565 
	C2566.134521,914.191040 2585.800293,914.170105 2605.451416,913.829529 
	C2613.348633,913.692688 2618.280762,908.472229 2619.277100,900.639343 
	C2619.611084,898.013245 2619.417236,895.316345 2619.417480,892.651855 
	C2619.422119,776.370850 2619.422119,660.089844 2619.418701,543.808838 
	C2619.418701,541.143860 2619.604004,538.454590 2619.317871,535.818481 
	C2618.415771,527.518250 2613.348389,522.263062 2604.918213,522.129517 
	C2585.599121,521.823303 2566.267090,521.799561 2546.949463,522.155518 
	C2538.546387,522.310364 2533.718750,527.713684 2533.034668,536.197205 
	C2532.821045,538.846130 2532.970703,541.525269 2532.970459,544.190552 
	C2532.968262,582.839844 2532.975342,621.489075 2532.956543,660.138367 
	C2532.955078,663.131409 2532.950439,666.141907 2532.645264,669.113281 
	C2532.173340,673.710693 2529.441650,676.320190 2524.862549,676.788818 
	C2522.551758,677.025269 2520.206787,676.975586 2517.877441,676.976074 
	C2475.229980,676.984314 2432.582520,676.982483 2389.935059,676.974243 
	C2387.604492,676.973816 2385.248779,677.103577 2382.947998,676.820618 
	C2377.210938,676.115051 2374.765381,673.594849 2374.241211,667.821045 
	C2374.000977,665.176697 2374.180908,662.493774 2374.180664,659.828308 
	C2374.177979,619.513123 2374.223633,579.197876 2374.144775,538.882812 
	C2374.123047,527.752319 2369.311279,522.238525 2358.955078,522.084167 
	C2340.301025,521.806030 2321.636963,521.809998 2302.982910,522.088806 
	C2293.436035,522.231506 2288.415527,527.660095 2288.006836,537.117615 
	C2287.906250,539.445557 2287.988281,541.781494 2287.988281,544.113770 
	C2287.988037,628.409180 2287.988037,712.704590 2287.988037,799.000000 
M1457.608521,891.156494 
	C1452.582031,906.131714 1457.819946,913.872009 1473.250244,913.978821 
	C1489.247681,914.089600 1505.246704,914.035278 1521.244751,913.996155 
	C1533.826050,913.965393 1536.897461,911.961792 1541.574463,900.497803 
	C1549.868530,880.167969 1558.065430,859.798584 1566.312256,839.449463 
	C1571.755859,826.017456 1571.763184,826.011414 1585.831665,826.010132 
	C1631.826538,826.005859 1677.821411,826.004517 1723.816284,826.011536 
	C1737.093262,826.013550 1737.093994,826.027954 1742.065674,838.218079 
	C1750.734131,859.473450 1759.480713,880.697510 1768.022705,902.003540 
	C1770.712769,908.713257 1774.648071,913.815735 1782.374756,913.884277 
	C1802.369751,914.061646 1822.377441,914.294250 1842.360352,913.764404 
	C1852.585571,913.493347 1858.194580,904.308533 1855.070068,894.560486 
	C1854.057983,891.402832 1852.593506,888.387207 1851.289551,885.326416 
	C1822.993408,818.906677 1794.673828,752.496948 1766.395142,686.069702 
	C1748.020386,642.907288 1729.836914,599.662964 1711.314697,556.564026 
	C1698.581177,526.934326 1667.135742,512.437866 1637.095215,522.194397 
	C1617.705811,528.491699 1605.800293,542.263977 1597.954224,560.797607 
	C1551.521118,670.480469 1504.770752,780.028931 1457.608521,891.156494 
M2816.008057,623.361206 
	C2816.008057,621.695007 2816.182129,620.007568 2815.980957,618.366028 
	C2814.392578,605.405334 2826.104004,595.841797 2838.185059,595.958862 
	C2890.837158,596.469116 2943.497070,596.178467 2996.154297,596.171875 
	C2999.486328,596.171509 3002.830322,596.281433 3006.148438,596.051819 
	C3017.173828,595.288818 3025.060303,587.979370 3025.514648,577.000244 
	C3026.037842,564.357483 3025.990479,551.665100 3025.553467,539.016296 
	C3025.151367,527.377563 3017.383545,520.096558 3005.740234,519.448242 
	C3003.414062,519.318726 3001.075684,519.398254 2998.742920,519.398193 
	C2924.089844,519.396179 2849.436523,519.392639 2774.783447,519.407471 
	C2771.453857,519.408142 2768.108154,519.398254 2764.797607,519.700012 
	C2749.211914,521.120667 2735.708008,532.494690 2732.089600,547.704895 
	C2730.948730,552.500977 2730.646240,557.592285 2730.642334,562.549072 
	C2730.563232,664.197266 2730.582764,765.845520 2730.584717,867.493774 
	C2730.584717,869.826416 2730.471191,872.169006 2730.640381,874.490173 
	C2731.867188,891.335571 2743.052979,905.637634 2758.773438,909.440552 
	C2764.517578,910.830017 2770.667969,910.943115 2776.633789,910.950378 
	C2852.953369,911.043335 2929.272705,911.013672 3005.592285,911.002197 
	C3008.588623,911.001709 3011.610840,911.098083 3014.576660,910.760742 
	C3023.305420,909.768005 3027.967529,905.096558 3028.096191,896.464600 
	C3028.334961,880.471069 3028.343018,864.468811 3028.098877,848.475464 
	C3027.964111,839.626343 3022.618408,834.602539 3013.611816,834.032898 
	C3011.287842,833.885925 3008.947266,833.992554 3006.614502,833.992493 
	C2963.955566,833.991272 2921.296387,833.991699 2878.637451,833.991272 
	C2864.640137,833.991150 2850.641113,834.115295 2836.645752,833.946533 
	C2826.649170,833.825928 2819.431885,828.816223 2816.968994,820.096619 
	C2815.998291,816.661072 2816.046875,812.869019 2816.043701,809.239014 
	C2815.993408,747.916809 2816.008057,686.594543 2816.008057,623.361206 
M2133.000000,601.841553 
	C2148.329346,601.841492 2163.658936,601.906494 2178.988037,601.821533 
	C2192.160645,601.748596 2196.886963,597.001404 2196.998535,583.629517 
	C2197.118164,569.301025 2197.101318,554.970154 2197.004150,540.641235 
	C2196.909668,526.725647 2192.246826,522.016479 2178.427002,522.011475 
	C2082.452393,521.976440 1986.477539,521.972900 1890.502808,522.013489 
	C1877.289795,522.019043 1872.281494,526.984802 1872.184937,539.964111 
	C1872.083374,553.626465 1872.717896,567.319275 1872.004028,580.945068 
	C1871.265015,595.050354 1877.315552,602.401978 1892.588623,602.036926 
	C1921.231201,601.352173 1949.902222,601.802551 1978.561157,601.861572 
	C1989.270264,601.883667 1991.439453,604.103271 1991.650024,614.657593 
	C1991.689941,616.656250 1991.656128,618.656433 1991.656128,620.655884 
	C1991.656372,711.965149 1991.649658,803.274353 1991.663574,894.583618 
	C1991.665894,909.799072 1995.884033,913.960754 2011.281860,914.000366 
	C2025.944580,914.038086 2040.629639,913.503052 2055.264160,914.147461 
	C2070.681885,914.826416 2078.175537,911.008728 2078.066895,891.369751 
	C2077.559570,799.730103 2077.833984,708.085999 2077.853027,616.443542 
	C2077.855713,603.257996 2079.214355,601.889404 2092.010254,601.850891 
	C2105.006836,601.811829 2118.003418,601.841858 2133.000000,601.841553 
M2987.227051,733.728149 
	C2997.321289,710.653503 2980.979492,679.244202 2948.001465,680.827515 
	C2933.047852,681.545532 2918.030762,680.889954 2903.043213,680.975342 
	C2896.393799,681.013184 2889.666504,680.760803 2883.112793,681.653687 
	C2865.906006,683.997925 2852.947998,698.204041 2851.661865,715.386536 
	C2849.905762,738.847778 2865.936768,756.904907 2889.542725,757.347229 
	C2909.852783,757.727844 2930.176514,757.535583 2950.492676,757.390320 
	C2966.929688,757.272766 2979.219238,750.166443 2987.227051,733.728149 
z"/>
<path fill="#FCFCFC" opacity="1.000000" stroke="none" 
	d="
M473.580566,830.509277 
	C416.547363,640.270996 502.104614,435.902618 677.533936,342.162781 
	C739.228394,309.196594 805.235229,292.524414 875.043335,292.728363 
	C1080.194092,293.327637 1247.262695,438.987701 1285.520020,628.689392 
	C1330.856445,853.492798 1184.573975,1074.210083 960.168884,1120.291504 
	C746.818237,1164.102905 536.119324,1038.903564 473.580566,830.509277 
M627.709167,456.703308 
	C626.059509,458.352417 624.361938,459.956512 622.767151,461.657104 
	C531.538025,558.939148 499.489136,672.915100 533.724365,801.829895 
	C584.243591,992.062744 780.287598,1102.466919 970.027649,1049.861084 
	C1135.072632,1004.102051 1251.113281,842.000793 1225.401733,659.515015 
	C1214.050659,578.951416 1178.500122,509.878693 1119.184814,454.124115 
	C1038.219849,378.019562 941.600891,345.980133 831.315613,358.662903 
	C753.076843,367.660339 685.604675,401.136719 627.709167,456.703308 
z"/>
<path fill="#FDFDFD" opacity="1.000000" stroke="none" 
	d="
M3379.567871,788.061157 
	C3402.168457,821.116394 3424.347412,853.551880 3446.528564,885.986328 
	C3446.904541,886.535889 3447.285156,887.084045 3447.693848,887.609253 
	C3452.037842,893.192566 3454.483398,899.264221 3451.098145,906.113708 
	C3447.646973,913.096375 3441.247559,914.157837 3434.157715,914.070068 
	C3418.498779,913.876099 3402.835693,914.040344 3387.174316,914.005249 
	C3363.148438,913.951355 3365.939453,916.158203 3351.921631,895.164551 
	C3330.102783,862.488220 3308.083252,829.944397 3286.470459,797.132568 
	C3282.357666,790.888367 3277.738770,787.988403 3270.152832,788.205505 
	C3254.504395,788.653442 3238.833496,788.262451 3223.172852,788.373169 
	C3214.296631,788.435913 3213.468994,789.259033 3213.449463,798.137024 
	C3213.380371,829.459656 3213.430664,860.782654 3213.406738,892.105469 
	C3213.404541,895.097534 3213.512207,898.140320 3213.031738,901.071594 
	C3211.737061,908.973572 3206.886230,913.739136 3198.834961,913.865356 
	C3179.513428,914.168335 3160.180420,914.167419 3140.859375,913.852356 
	C3132.899658,913.722656 3127.949219,908.745422 3126.814941,900.890686 
	C3126.389648,897.947083 3126.585693,894.906250 3126.585449,891.909790 
	C3126.577148,776.281921 3126.578369,660.653992 3126.582275,545.026123 
	C3126.582275,542.360962 3126.410645,539.671631 3126.698975,537.035095 
	C3127.691406,527.961975 3133.288818,522.687866 3142.408203,522.025391 
	C3143.403076,521.953064 3144.406738,521.989624 3145.406250,521.990540 
	C3202.052979,522.045044 3258.702637,521.767456 3315.344727,522.304138 
	C3341.882568,522.555603 3367.698975,527.589111 3391.427246,540.236389 
	C3426.936279,559.162720 3446.768799,588.974487 3452.212891,628.704163 
	C3455.097656,649.753418 3454.463135,670.639648 3449.160889,691.172791 
	C3439.874268,727.136292 3416.337402,751.269714 3384.074219,767.882812 
	C3380.064697,769.947266 3376.135498,772.167114 3371.238770,774.818909 
	C3374.315918,779.730591 3376.731201,783.585938 3379.567871,788.061157 
M3306.274658,600.188293 
	C3279.304688,600.127625 3252.334717,599.996094 3225.364990,600.043884 
	C3215.676270,600.061035 3213.481689,602.219360 3213.449463,611.741943 
	C3213.349609,641.376404 3213.350586,671.011719 3213.448730,700.646240 
	C3213.480225,710.168762 3215.557129,712.059509 3225.423584,712.139648 
	C3237.076904,712.234314 3248.731689,712.194580 3260.385742,712.155334 
	C3277.032471,712.099243 3293.721924,712.723450 3310.317871,711.760010 
	C3351.562012,709.365723 3374.149902,678.253540 3364.065918,638.664978 
	C3360.462646,624.520020 3351.730225,614.648499 3338.862793,608.159607 
	C3329.185547,603.279358 3318.728271,601.485352 3306.274658,600.188293 
z"/>
<path fill="#FCFCFC" opacity="1.000000" stroke="none" 
	d="
M2287.988037,798.000000 
	C2287.988037,712.704590 2287.988037,628.409180 2287.988281,544.113770 
	C2287.988281,541.781494 2287.906250,539.445557 2288.006836,537.117615 
	C2288.415527,527.660095 2293.436035,522.231506 2302.982910,522.088806 
	C2321.636963,521.809998 2340.301025,521.806030 2358.955078,522.084167 
	C2369.311279,522.238525 2374.123047,527.752319 2374.144775,538.882812 
	C2374.223633,579.197876 2374.177979,619.513123 2374.180664,659.828308 
	C2374.180908,662.493774 2374.000977,665.176697 2374.241211,667.821045 
	C2374.765381,673.594849 2377.210938,676.115051 2382.947998,676.820618 
	C2385.248779,677.103577 2387.604492,676.973816 2389.935059,676.974243 
	C2432.582520,676.982483 2475.229980,676.984314 2517.877441,676.976074 
	C2520.206787,676.975586 2522.551758,677.025269 2524.862549,676.788818 
	C2529.441650,676.320190 2532.173340,673.710693 2532.645264,669.113281 
	C2532.950439,666.141907 2532.955078,663.131409 2532.956543,660.138367 
	C2532.975342,621.489075 2532.968262,582.839844 2532.970459,544.190552 
	C2532.970703,541.525269 2532.821045,538.846130 2533.034668,536.197205 
	C2533.718750,527.713684 2538.546387,522.310364 2546.949463,522.155518 
	C2566.267090,521.799561 2585.599121,521.823303 2604.918213,522.129517 
	C2613.348389,522.263062 2618.415771,527.518250 2619.317871,535.818481 
	C2619.604004,538.454590 2619.418701,541.143860 2619.418701,543.808838 
	C2619.422119,660.089844 2619.422119,776.370850 2619.417480,892.651855 
	C2619.417236,895.316345 2619.611084,898.013245 2619.277100,900.639343 
	C2618.280762,908.472229 2613.348633,913.692688 2605.451416,913.829529 
	C2585.800293,914.170105 2566.134521,914.191040 2546.485107,913.804565 
	C2538.605469,913.649658 2533.841553,908.248596 2533.081543,900.330688 
	C2532.827881,897.687683 2532.973389,895.004272 2532.972900,892.339355 
	C2532.968018,853.356873 2532.969482,814.374451 2532.969482,775.391968 
	C2532.969482,773.392883 2533.022949,771.392151 2532.961914,769.394958 
	C2532.642334,758.966675 2530.385010,756.664246 2519.690918,756.649353 
	C2475.710693,756.588135 2431.730469,756.587769 2387.750244,756.640869 
	C2376.615723,756.654297 2374.215088,759.058411 2374.201904,770.071472 
	C2374.153076,810.719788 2374.180664,851.368225 2374.178711,892.016602 
	C2374.178467,894.348877 2374.266846,896.685852 2374.151611,899.012573 
	C2373.701416,908.088135 2368.891357,913.688538 2360.040527,913.849915 
	C2340.722656,914.202271 2321.387939,914.248230 2302.072510,913.842346 
	C2292.603027,913.643433 2288.035156,907.680847 2288.013428,896.954041 
	C2287.947510,864.302795 2287.988525,831.651367 2287.988037,798.000000 
z"/>
<path fill="#FDFDFD" opacity="1.000000" stroke="none" 
	d="
M1457.867676,890.389526 
	C1504.770752,780.028931 1551.521118,670.480469 1597.954224,560.797607 
	C1605.800293,542.263977 1617.705811,528.491699 1637.095215,522.194397 
	C1667.135742,512.437866 1698.581177,526.934326 1711.314697,556.564026 
	C1729.836914,599.662964 1748.020386,642.907288 1766.395142,686.069702 
	C1794.673828,752.496948 1822.993408,818.906677 1851.289551,885.326416 
	C1852.593506,888.387207 1854.057983,891.402832 1855.070068,894.560486 
	C1858.194580,904.308533 1852.585571,913.493347 1842.360352,913.764404 
	C1822.377441,914.294250 1802.369751,914.061646 1782.374756,913.884277 
	C1774.648071,913.815735 1770.712769,908.713257 1768.022705,902.003540 
	C1759.480713,880.697510 1750.734131,859.473450 1742.065674,838.218079 
	C1737.093994,826.027954 1737.093262,826.013550 1723.816284,826.011536 
	C1677.821411,826.004517 1631.826538,826.005859 1585.831665,826.010132 
	C1571.763184,826.011414 1571.755859,826.017456 1566.312256,839.449463 
	C1558.065430,859.798584 1549.868530,880.167969 1541.574463,900.497803 
	C1536.897461,911.961792 1533.826050,913.965393 1521.244751,913.996155 
	C1505.246704,914.035278 1489.247681,914.089600 1473.250244,913.978821 
	C1457.819946,913.872009 1452.582031,906.131714 1457.867676,890.389526 
M1678.844971,749.846191 
	C1683.505371,749.839172 1688.184082,750.091248 1692.822144,749.766235 
	C1700.355347,749.238586 1703.459351,744.590759 1701.293457,737.517395 
	C1700.808594,735.934265 1700.066040,734.429504 1699.434326,732.891968 
	C1687.816772,704.615112 1676.196533,676.339355 1664.580933,648.061707 
	C1662.584106,643.200500 1661.474121,637.306824 1654.594849,637.210938 
	C1647.664185,637.114258 1646.372314,643.039734 1644.391235,647.863403 
	C1632.777344,676.142273 1621.251465,704.457336 1609.700806,732.762146 
	C1608.947754,734.607422 1608.066406,736.422546 1607.537476,738.332764 
	C1605.883057,744.306152 1608.811768,748.845154 1614.981079,749.729004 
	C1617.267212,750.056519 1619.633545,749.842041 1621.963379,749.842773 
	C1640.272339,749.848267 1658.581299,749.845947 1678.844971,749.846191 
z"/>
<path fill="#FDFDFD" opacity="1.000000" stroke="none" 
	d="
M2816.008057,624.316772 
	C2816.008057,686.594543 2815.993408,747.916809 2816.043701,809.239014 
	C2816.046875,812.869019 2815.998291,816.661072 2816.968994,820.096619 
	C2819.431885,828.816223 2826.649170,833.825928 2836.645752,833.946533 
	C2850.641113,834.115295 2864.640137,833.991150 2878.637451,833.991272 
	C2921.296387,833.991699 2963.955566,833.991272 3006.614502,833.992493 
	C3008.947266,833.992554 3011.287842,833.885925 3013.611816,834.032898 
	C3022.618408,834.602539 3027.964111,839.626343 3028.098877,848.475464 
	C3028.343018,864.468811 3028.334961,880.471069 3028.096191,896.464600 
	C3027.967529,905.096558 3023.305420,909.768005 3014.576660,910.760742 
	C3011.610840,911.098083 3008.588623,911.001709 3005.592285,911.002197 
	C2929.272705,911.013672 2852.953369,911.043335 2776.633789,910.950378 
	C2770.667969,910.943115 2764.517578,910.830017 2758.773438,909.440552 
	C2743.052979,905.637634 2731.867188,891.335571 2730.640381,874.490173 
	C2730.471191,872.169006 2730.584717,869.826416 2730.584717,867.493774 
	C2730.582764,765.845520 2730.563232,664.197266 2730.642334,562.549072 
	C2730.646240,557.592285 2730.948730,552.500977 2732.089600,547.704895 
	C2735.708008,532.494690 2749.211914,521.120667 2764.797607,519.700012 
	C2768.108154,519.398254 2771.453857,519.408142 2774.783447,519.407471 
	C2849.436523,519.392639 2924.089844,519.396179 2998.742920,519.398193 
	C3001.075684,519.398254 3003.414062,519.318726 3005.740234,519.448242 
	C3017.383545,520.096558 3025.151367,527.377563 3025.553467,539.016296 
	C3025.990479,551.665100 3026.037842,564.357483 3025.514648,577.000244 
	C3025.060303,587.979370 3017.173828,595.288818 3006.148438,596.051819 
	C3002.830322,596.281433 2999.486328,596.171509 2996.154297,596.171875 
	C2943.497070,596.178467 2890.837158,596.469116 2838.185059,595.958862 
	C2826.104004,595.841797 2814.392578,605.405334 2815.980957,618.366028 
	C2816.182129,620.007568 2816.008057,621.695007 2816.008057,624.316772 
z"/>
<path fill="#FDFDFD" opacity="1.000000" stroke="none" 
	d="
M2132.000000,601.841553 
	C2118.003418,601.841858 2105.006836,601.811829 2092.010254,601.850891 
	C2079.214355,601.889404 2077.855713,603.257996 2077.853027,616.443542 
	C2077.833984,708.085999 2077.559570,799.730103 2078.066895,891.369751 
	C2078.175537,911.008728 2070.681885,914.826416 2055.264160,914.147461 
	C2040.629639,913.503052 2025.944580,914.038086 2011.281860,914.000366 
	C1995.884033,913.960754 1991.665894,909.799072 1991.663574,894.583618 
	C1991.649658,803.274353 1991.656372,711.965149 1991.656128,620.655884 
	C1991.656128,618.656433 1991.689941,616.656250 1991.650024,614.657593 
	C1991.439453,604.103271 1989.270264,601.883667 1978.561157,601.861572 
	C1949.902222,601.802551 1921.231201,601.352173 1892.588623,602.036926 
	C1877.315552,602.401978 1871.265015,595.050354 1872.004028,580.945068 
	C1872.717896,567.319275 1872.083374,553.626465 1872.184937,539.964111 
	C1872.281494,526.984802 1877.289795,522.019043 1890.502808,522.013489 
	C1986.477539,521.972900 2082.452393,521.976440 2178.427002,522.011475 
	C2192.246826,522.016479 2196.909668,526.725647 2197.004150,540.641235 
	C2197.101318,554.970154 2197.118164,569.301025 2196.998535,583.629517 
	C2196.886963,597.001404 2192.160645,601.748596 2178.988037,601.821533 
	C2163.658936,601.906494 2148.329346,601.841492 2132.000000,601.841553 
z"/>
<path fill="#FAFAFA" opacity="1.000000" stroke="none" 
	d="
M2986.855957,734.412415 
	C2979.219238,750.166443 2966.929688,757.272766 2950.492676,757.390320 
	C2930.176514,757.535583 2909.852783,757.727844 2889.542725,757.347229 
	C2865.936768,756.904907 2849.905762,738.847778 2851.661865,715.386536 
	C2852.947998,698.204041 2865.906006,683.997925 2883.112793,681.653687 
	C2889.666504,680.760803 2896.393799,681.013184 2903.043213,680.975342 
	C2918.030762,680.889954 2933.047852,681.545532 2948.001465,680.827515 
	C2980.979492,679.244202 2997.321289,710.653503 2986.855957,734.412415 
z"/>
<path fill="#010101" opacity="1.000000" stroke="none" 
	d="
M628.209961,456.203705 
	C685.604675,401.136719 753.076843,367.660339 831.315613,358.662903 
	C941.600891,345.980133 1038.219849,378.019562 1119.184814,454.124115 
	C1178.500122,509.878693 1214.050659,578.951416 1225.401733,659.515015 
	C1251.113281,842.000793 1135.072632,1004.102051 970.027649,1049.861084 
	C780.287598,1102.466919 584.243591,992.062744 533.724365,801.829895 
	C499.489136,672.915100 531.538025,558.939148 622.767151,461.657104 
	C624.361938,459.956512 626.059509,458.352417 628.209961,456.203705 
M1040.112427,736.783020 
	C1016.699585,690.835938 993.285461,644.889526 969.874817,598.941406 
	C961.869873,583.230042 954.212158,567.330505 945.805176,551.837463 
	C925.843506,515.049988 879.954102,505.204712 847.501099,530.439453 
	C825.570496,547.492188 813.844604,581.452820 830.922791,614.181946 
	C859.242188,668.454041 886.647095,723.203125 914.456726,777.741333 
	C922.920593,794.340210 931.373291,810.945435 939.964600,827.478455 
	C953.896423,854.288330 982.824341,867.591492 1012.397766,860.863831 
	C1053.155396,851.591858 1074.235962,808.283936 1056.974487,770.187683 
	C1052.036377,759.289429 1046.194214,748.800964 1040.112427,736.783020 
M691.625854,758.926331 
	C687.800110,768.674683 686.139954,778.835510 686.657959,789.238220 
	C688.240112,821.009644 708.594055,848.027893 738.517517,858.432739 
	C767.955139,868.668640 800.503479,860.385498 821.184265,836.419006 
	C841.173645,813.253662 846.143799,786.429810 834.961304,758.092041 
	C823.661438,729.457031 801.762146,712.720154 770.778503,709.721985 
	C735.865601,706.343567 707.448120,723.969604 691.625854,758.926331 
z"/>
<path fill="#020202" opacity="1.000000" stroke="none" 
	d="
M3307.194824,600.232788 
	C3318.728271,601.485352 3329.185547,603.279358 3338.862793,608.159607 
	C3351.730225,614.648499 3360.462646,624.520020 3364.065918,638.664978 
	C3374.149902,678.253540 3351.562012,709.365723 3310.317871,711.760010 
	C3293.721924,712.723450 3277.032471,712.099243 3260.385742,712.155334 
	C3248.731689,712.194580 3237.076904,712.234314 3225.423584,712.139648 
	C3215.557129,712.059509 3213.480225,710.168762 3213.448730,700.646240 
	C3213.350586,671.011719 3213.349609,641.376404 3213.449463,611.741943 
	C3213.481689,602.219360 3215.676270,600.061035 3225.364990,600.043884 
	C3252.334717,599.996094 3279.304688,600.127625 3307.194824,600.232788 
z"/>
<path fill="#040404" opacity="1.000000" stroke="none" 
	d="
M1677.867676,749.846191 
	C1658.581299,749.845947 1640.272339,749.848267 1621.963379,749.842773 
	C1619.633545,749.842041 1617.267212,750.056519 1614.981079,749.729004 
	C1608.811768,748.845154 1605.883057,744.306152 1607.537476,738.332764 
	C1608.066406,736.422546 1608.947754,734.607422 1609.700806,732.762146 
	C1621.251465,704.457336 1632.777344,676.142273 1644.391235,647.863403 
	C1646.372314,643.039734 1647.664185,637.114258 1654.594849,637.210938 
	C1661.474121,637.306824 1662.584106,643.200500 1664.580933,648.061707 
	C1676.196533,676.339355 1687.816772,704.615112 1699.434326,732.891968 
	C1700.066040,734.429504 1700.808594,735.934265 1701.293457,737.517395 
	C1703.459351,744.590759 1700.355347,749.238586 1692.822144,749.766235 
	C1688.184082,750.091248 1683.505371,749.839172 1677.867676,749.846191 
z"/>
<path fill="#FDFDFD" opacity="1.000000" stroke="none" 
	d="
M1040.439453,737.453857 
	C1046.194214,748.800964 1052.036377,759.289429 1056.974487,770.187683 
	C1074.235962,808.283936 1053.155396,851.591858 1012.397766,860.863831 
	C982.824341,867.591492 953.896423,854.288330 939.964600,827.478455 
	C931.373291,810.945435 922.920593,794.340210 914.456726,777.741333 
	C886.647095,723.203125 859.242188,668.454041 830.922791,614.181946 
	C813.844604,581.452820 825.570496,547.492188 847.501099,530.439453 
	C879.954102,505.204712 925.843506,515.049988 945.805176,551.837463 
	C954.212158,567.330505 961.869873,583.230042 969.874817,598.941406 
	C993.285461,644.889526 1016.699585,690.835938 1040.439453,737.453857 
z"/>
<path fill="#FDFDFD" opacity="1.000000" stroke="none" 
	d="
M691.856567,758.184692 
	C707.448120,723.969604 735.865601,706.343567 770.778503,709.721985 
	C801.762146,712.720154 823.661438,729.457031 834.961304,758.092041 
	C846.143799,786.429810 841.173645,813.253662 821.184265,836.419006 
	C800.503479,860.385498 767.955139,868.668640 738.517517,858.432739 
	C708.594055,848.027893 688.240112,821.009644 686.657959,789.238220 
	C686.139954,778.835510 687.800110,768.674683 691.856567,758.184692 
z"/>
</svg>