<svg version="1.1" id="Layer_1" xmlns="http://www.w3.org/2000/svg" xmlns:xlink="http://www.w3.org/1999/xlink" x="0px" y="0px"
	 width="100%" viewBox="0 0 339 112" enable-background="new 0 0 339 112" xml:space="preserve">
<path fill="#FDFDFE" opacity="1.000000" stroke="none" 
	d="
M340.000000,1.999995 
	C340.000000,38.354229 340.000000,74.708458 339.763672,111.613541 
	C339.351562,112.442940 339.175781,112.721474 339.000000,113.000008 
	C226.395889,113.000000 113.791779,113.000000 1.093832,113.000000 
	C1.093832,75.750160 1.093832,38.500004 1.093832,1.000000 
	C113.354103,1.000000 225.708389,1.000000 338.629517,1.230246 
	C339.464264,1.640324 339.732147,1.820157 340.000000,1.999995 
M238.643539,103.065346 
	C238.787308,103.063774 238.931091,103.062202 239.494156,102.829613 
	C239.757034,102.629951 239.942535,102.374161 240.706558,102.111694 
	C241.710358,102.771118 242.714142,103.430550 243.717941,104.089981 
	C243.932007,103.939194 244.146072,103.788406 244.360123,103.637619 
	C243.668060,102.501053 242.976013,101.364487 242.283951,100.227913 
	C241.501541,100.801582 240.719131,101.375244 239.509476,102.165131 
	C239.237213,102.353439 239.043777,102.602882 238.643539,103.065346 
M238.912979,105.631691 
	C238.804123,105.591522 238.695267,105.551346 238.586411,105.511177 
	C238.699722,105.694130 238.813019,105.877090 239.110321,106.773460 
	C240.484009,107.173813 241.857697,107.574173 243.231384,107.974525 
	C243.321594,107.407097 243.411819,106.839668 243.502029,106.272240 
	C242.023499,106.154121 240.544983,106.036003 238.912979,105.631691 
M155.737152,96.970337 
	C156.756409,96.839043 157.775650,96.707741 159.752060,96.484489 
	C215.225235,96.478378 270.698425,96.473618 326.171600,96.464645 
	C334.073059,96.463364 337.902771,92.585312 337.909119,84.531319 
	C337.923950,65.707085 337.629578,46.877010 338.014954,28.060663 
	C338.267639,15.723183 332.259064,13.287717 323.015137,13.310212 
	C270.707367,13.437504 218.399155,13.369758 166.091080,13.381622 
	C164.432297,13.381998 162.773529,13.525466 160.198288,13.351721 
	C112.208679,13.342593 64.219063,13.329944 16.229454,13.340856 
	C14.745300,13.341193 13.242515,13.479095 11.780277,13.734953 
	C5.059080,14.911009 2.345539,18.083584 2.333883,24.937309 
	C2.299876,44.932961 2.299682,64.928749 2.332032,84.924408 
	C2.345166,93.042885 5.770334,96.410538 13.867714,96.411438 
	C56.191971,96.416153 98.516228,96.405624 140.840485,96.424721 
	C145.666656,96.426895 150.492783,96.581100 155.737152,96.970337 
z"/>
<path fill="#D9D9D9" opacity="1.000000" stroke="none" 
	d="
M339.500000,113.000008 
	C339.175781,112.721474 339.351562,112.442940 339.763672,112.082199 
	C340.000000,112.333336 340.000000,112.666664 339.500000,113.000008 
z"/>
<path fill="#D9D9D9" opacity="1.000000" stroke="none" 
	d="
M340.000000,1.499995 
	C339.732147,1.820157 339.464264,1.640324 339.098206,1.230246 
	C339.333344,1.000000 339.666656,1.000000 340.000000,1.499995 
z"/>
<path fill="#071987" opacity="1.000000" stroke="none" 
	d="
M161.114761,13.602226 
	C162.773529,13.525466 164.432297,13.381998 166.091080,13.381622 
	C218.399155,13.369758 270.707367,13.437504 323.015137,13.310212 
	C332.259064,13.287717 338.267639,15.723183 338.014954,28.060663 
	C337.629578,46.877010 337.923950,65.707085 337.909119,84.531319 
	C337.902771,92.585312 334.073059,96.463364 326.171600,96.464645 
	C270.698425,96.473618 215.225235,96.478378 159.338028,96.087173 
	C159.286911,93.964859 159.987595,92.229614 159.935654,90.517197 
	C159.852219,87.766640 158.856155,85.013626 158.971283,82.292351 
	C159.503693,69.707428 160.272919,57.132324 161.000809,44.556221 
	C161.073334,43.303265 161.440582,42.067364 161.671036,40.823547 
	C162.889038,42.824532 163.466827,44.600204 163.516113,46.390419 
	C163.630051,50.529984 163.492783,54.676643 163.447235,58.820316 
	C163.429581,60.426086 162.888931,62.279919 163.525497,63.550179 
	C163.952606,64.402435 166.677063,65.161034 167.235107,64.669357 
	C168.389038,63.652676 168.975739,61.829258 169.438705,60.234024 
	C169.972687,58.394089 170.121613,56.442410 170.294968,55.398830 
	C174.095200,56.085819 176.823074,56.635574 179.569992,57.062828 
	C184.181122,57.780025 188.789536,58.607075 193.431808,58.973930 
	C194.780319,59.080494 196.552216,58.064072 197.527267,57.006622 
	C198.074875,56.412758 197.834366,54.139462 197.159470,53.586693 
	C196.051727,52.679409 194.238708,52.027794 192.833481,52.195152 
	C187.092743,52.878849 181.393845,53.913841 175.679535,54.819450 
	C175.844269,54.248882 176.008987,53.678318 176.173721,53.107750 
	C174.879837,51.129765 173.967133,48.387913 172.140945,47.476635 
	C171.137070,46.975685 168.595261,49.556683 166.806778,50.709507 
	C165.842041,42.794830 164.803894,34.411369 163.818161,26.021746 
	C163.694763,24.971537 163.443497,23.622665 163.941223,22.865768 
	C166.521912,18.941423 164.812607,17.119167 160.944427,15.815313 
	C160.979584,14.866076 161.047180,14.234151 161.114761,13.602226 
M206.718292,62.678288 
	C206.224960,63.931252 205.120636,65.306366 205.342529,66.416344 
	C206.382767,71.619804 211.657181,75.292198 218.057953,75.654160 
	C224.762543,76.033302 230.516083,71.907837 231.759476,65.829727 
	C232.832672,60.583549 229.178604,55.825687 222.373398,53.670624 
	C219.531677,52.770710 216.496658,52.282532 213.875427,50.960804 
	C212.343613,50.188404 210.419022,48.048534 210.538956,46.688614 
	C210.689819,44.978100 212.413055,42.779778 214.047546,41.940651 
	C219.600815,39.089672 224.448715,41.656364 226.585785,48.180901 
	C230.683853,48.428120 231.036652,46.224609 229.660751,43.204895 
	C227.011490,37.390549 221.953629,36.551739 216.296188,36.885693 
	C210.959625,37.200699 206.945068,40.422459 206.054962,45.355885 
	C205.240631,49.869377 207.914230,54.184971 212.976974,56.072075 
	C216.232117,57.285404 219.875076,57.690971 222.846588,59.349918 
	C224.793152,60.436661 227.297592,63.432426 226.954041,65.005890 
	C226.482559,67.165207 223.841354,69.802780 221.615311,70.441261 
	C215.867905,72.089737 211.942642,69.582970 209.416733,64.019150 
	C209.103638,63.329506 208.116623,62.945820 206.718292,62.678288 
M237.964249,58.276714 
	C238.591843,60.816895 238.947815,63.464252 239.899628,65.876503 
	C242.421158,72.267014 247.579407,75.594292 254.164734,75.520050 
	C260.733978,75.445999 265.713318,72.015144 268.326660,65.643135 
	C270.756073,59.719677 270.838501,53.688194 268.898529,47.723495 
	C266.388977,40.007469 261.064362,36.645176 252.564789,36.905151 
	C245.953934,37.107353 240.943939,41.243851 238.985474,48.587135 
	C238.231216,51.415226 238.219879,54.441456 237.964249,58.276714 
M300.411835,38.805046 
	C300.024506,38.321602 299.642181,37.421318 299.249115,37.416592 
	C292.176941,37.331543 285.103455,37.354713 277.915955,37.354713 
	C277.915955,50.194672 277.915955,62.444935 277.915955,74.951653 
	C279.380890,74.882866 280.594360,74.825890 282.203766,74.750320 
	C282.203766,68.915222 282.203766,63.494606 282.203766,57.695541 
	C287.558502,57.695541 292.496948,57.695541 297.401245,57.695541 
	C297.649261,53.417782 297.650269,53.358978 294.216888,53.300850 
	C290.276184,53.234138 286.333496,53.285370 282.354858,53.285370 
	C282.354858,49.223438 282.354858,45.683243 282.354858,41.982388 
	C287.520966,41.982388 292.346466,42.128323 297.150970,41.875191 
	C298.288605,41.815250 299.355682,40.415462 300.411835,38.805046 
M319.486664,37.193413 
	C314.709106,37.193413 309.931549,37.193413 305.111816,37.193413 
	C305.111816,39.095158 305.111816,40.357548 305.111816,42.160576 
	C308.900665,42.160576 312.467102,42.160576 316.329468,42.160576 
	C316.329468,53.323215 316.329468,63.945507 316.329468,74.790085 
	C317.885590,74.790085 319.125610,74.790085 320.871155,74.790085 
	C320.871155,63.829884 320.871155,53.096043 320.871155,41.904205 
	C324.790222,41.904205 328.211426,41.904205 331.515411,41.904205 
	C332.467560,38.611401 331.897797,36.948158 328.467407,37.161858 
	C325.812744,37.327232 323.139496,37.193977 319.486664,37.193413 
z"/>
<path fill="#3F54D2" opacity="1.000000" stroke="none" 
	d="
M160.656525,13.476973 
	C161.047180,14.234151 160.979584,14.866076 160.719131,16.099548 
	C159.708649,18.252594 158.319595,19.764177 158.207779,21.364979 
	C158.041397,23.746611 159.152863,26.206083 159.058228,28.606321 
	C158.790283,35.403103 158.185883,42.186619 157.569977,48.975800 
	C157.425934,48.976242 157.137985,48.984898 156.943802,48.694950 
	C155.056549,47.888424 153.156219,46.676922 151.742966,47.098454 
	C150.793549,47.381634 150.458145,49.954639 149.990585,51.545078 
	C149.649765,52.704411 149.541580,53.932129 149.385925,54.811634 
	C147.414627,52.241169 145.900208,50.266445 144.385803,48.291725 
	C142.580200,49.860649 140.774597,51.429577 138.968979,52.998501 
	C139.094177,53.583309 139.219360,54.168118 139.344559,54.752926 
	C135.462189,53.924076 131.599686,52.973450 127.686272,52.334930 
	C126.383102,52.122307 124.063835,52.320320 123.759659,53.012249 
	C123.125397,54.455032 123.092224,56.528507 123.686417,57.986534 
	C123.973045,58.689877 126.304855,58.987328 127.599068,58.778236 
	C133.123352,57.885742 138.606033,56.735634 143.871918,55.724075 
	C144.943588,58.171806 145.289261,60.776688 146.730820,61.737675 
	C148.141174,62.677860 150.668625,61.942307 152.776642,61.942307 
	C153.192780,66.141678 153.707809,70.582405 154.053101,75.036301 
	C154.397339,79.476585 155.831146,84.379715 154.451141,88.246078 
	C153.176239,91.817894 153.454666,94.004669 155.318924,96.664803 
	C150.492783,96.581100 145.666656,96.426895 140.840485,96.424721 
	C98.516228,96.405624 56.191971,96.416153 13.867714,96.411438 
	C5.770334,96.410538 2.345166,93.042885 2.332032,84.924408 
	C2.299682,64.928749 2.299876,44.932961 2.333883,24.937309 
	C2.345539,18.083584 5.059080,14.911009 11.780277,13.734953 
	C13.242515,13.479095 14.745300,13.341193 16.229454,13.340856 
	C64.219063,13.329944 112.208679,13.342593 160.656525,13.476973 
M40.446728,58.966766 
	C41.582573,38.364143 32.299576,35.375427 13.209297,37.940716 
	C13.209297,50.120773 13.209297,62.322422 13.209297,74.991371 
	C16.775461,74.991371 20.062550,75.001831 23.349550,74.989456 
	C34.130035,74.948883 39.094288,70.516861 40.446728,58.966766 
M69.762245,56.788803 
	C67.680733,51.193081 65.696312,45.557648 63.437584,40.034393 
	C62.973602,38.899826 61.556705,37.581947 60.446690,37.448364 
	C59.371727,37.319000 57.413498,38.348022 57.064198,39.311108 
	C52.839069,50.960487 48.840324,62.691971 44.796558,74.361931 
	C48.626369,76.071426 49.777145,74.261597 50.755466,71.264740 
	C51.624107,68.603867 52.753323,64.604156 54.650696,64.008461 
	C58.261589,62.874802 62.747829,62.974571 66.376518,64.123123 
	C68.130882,64.678406 69.106613,68.676582 69.824219,71.283981 
	C70.794899,74.810905 72.575615,75.833366 76.170815,74.397896 
	C74.080536,68.707130 72.029243,63.122517 69.762245,56.788803 
M85.729691,63.425095 
	C85.728424,55.787460 85.811493,48.147827 85.631035,40.514431 
	C85.605255,39.423668 84.304214,38.363049 83.593369,37.288479 
	C82.711563,37.987015 81.070793,38.675247 81.061157,39.385624 
	C80.901978,51.110397 80.947960,62.837959 80.947960,74.725266 
	C88.275940,74.725266 94.994156,74.725266 101.712372,74.725266 
	C101.981087,74.281685 102.249809,73.838104 102.518532,73.394524 
	C101.379532,72.529755 100.287819,71.004761 99.093002,70.919167 
	C94.841934,70.614655 90.555763,70.800224 85.729362,70.800224 
	C85.729362,68.300308 85.729362,66.351364 85.729691,63.425095 
M114.140984,56.499886 
	C114.140106,51.190075 114.249046,45.876106 114.048538,40.573845 
	C114.006912,39.472893 112.817749,38.415340 112.157440,37.337784 
	C111.349716,38.448681 109.860344,39.547615 109.840614,40.672333 
	C109.660164,50.956917 109.803398,61.246693 109.695953,71.533325 
	C109.661606,74.822037 110.876678,75.636627 114.141136,74.370865 
	C114.141136,68.729752 114.141136,63.114346 114.140984,56.499886 
z"/>
<path fill="#D4D8ED" opacity="1.000000" stroke="none" 
	d="
M155.528046,96.817566 
	C153.454666,94.004669 153.176239,91.817894 154.451141,88.246078 
	C155.831146,84.379715 154.397339,79.476585 154.053101,75.036301 
	C153.707809,70.582405 153.192780,66.141678 152.776642,61.942307 
	C150.668625,61.942307 148.141174,62.677860 146.730820,61.737675 
	C145.289261,60.776688 144.943588,58.171806 143.871918,55.724075 
	C138.606033,56.735634 133.123352,57.885742 127.599068,58.778236 
	C126.304855,58.987328 123.973045,58.689877 123.686417,57.986534 
	C123.092224,56.528507 123.125397,54.455032 123.759659,53.012249 
	C124.063835,52.320320 126.383102,52.122307 127.686272,52.334930 
	C131.599686,52.973450 135.462189,53.924076 139.344559,54.752926 
	C139.219360,54.168118 139.094177,53.583309 138.968979,52.998501 
	C140.774597,51.429577 142.580200,49.860649 144.385803,48.291725 
	C145.900208,50.266445 147.414627,52.241169 149.385925,54.811634 
	C149.541580,53.932129 149.649765,52.704411 149.990585,51.545078 
	C150.458145,49.954639 150.793549,47.381634 151.742966,47.098454 
	C153.156219,46.676922 155.056549,47.888424 156.910553,49.085514 
	C156.492737,55.216759 155.913986,60.667496 155.335251,66.118233 
	C155.839478,66.155701 156.343689,66.193169 156.847916,66.230644 
	C157.024384,63.443638 157.230179,60.658096 157.369339,57.869225 
	C157.517166,54.906246 157.601776,51.940113 157.713989,48.975357 
	C158.185883,42.186619 158.790283,35.403103 159.058228,28.606321 
	C159.152863,26.206083 158.041397,23.746611 158.207779,21.364979 
	C158.319595,19.764177 159.708649,18.252594 160.751587,16.416859 
	C164.812607,17.119167 166.521912,18.941423 163.941223,22.865768 
	C163.443497,23.622665 163.694763,24.971537 163.818161,26.021746 
	C164.803894,34.411369 165.842041,42.794830 166.806778,50.709507 
	C168.595261,49.556683 171.137070,46.975685 172.140945,47.476635 
	C173.967133,48.387913 174.879837,51.129765 176.173721,53.107750 
	C176.008987,53.678318 175.844269,54.248882 175.679535,54.819450 
	C181.393845,53.913841 187.092743,52.878849 192.833481,52.195152 
	C194.238708,52.027794 196.051727,52.679409 197.159470,53.586693 
	C197.834366,54.139462 198.074875,56.412758 197.527267,57.006622 
	C196.552216,58.064072 194.780319,59.080494 193.431808,58.973930 
	C188.789536,58.607075 184.181122,57.780025 179.569992,57.062828 
	C176.823074,56.635574 174.095200,56.085819 170.294968,55.398830 
	C170.121613,56.442410 169.972687,58.394089 169.438705,60.234024 
	C168.975739,61.829258 168.389038,63.652676 167.235107,64.669357 
	C166.677063,65.161034 163.952606,64.402435 163.525497,63.550179 
	C162.888931,62.279919 163.429581,60.426086 163.447235,58.820316 
	C163.492783,54.676643 163.630051,50.529984 163.516113,46.390419 
	C163.466827,44.600204 162.889038,42.824532 161.671036,40.823547 
	C161.440582,42.067364 161.073334,43.303265 161.000809,44.556221 
	C160.272919,57.132324 159.503693,69.707428 158.971283,82.292351 
	C158.856155,85.013626 159.852219,87.766640 159.935654,90.517197 
	C159.987595,92.229614 159.286911,93.964859 158.859451,96.133148 
	C157.775650,96.707741 156.756409,96.839043 155.528046,96.817566 
z"/>
<path fill="#EDEEF6" opacity="1.000000" stroke="none" 
	d="
M239.936737,101.948914 
	C240.719131,101.375244 241.501541,100.801582 242.283951,100.227921 
	C242.976013,101.364487 243.668060,102.501053 244.360123,103.637619 
	C244.146072,103.788406 243.932007,103.939194 243.717941,104.089981 
	C242.714142,103.430550 241.710358,102.771118 240.351807,102.056961 
	C239.997040,102.002235 239.936737,101.948914 239.936737,101.948914 
z"/>
<path fill="#EDEEF6" opacity="1.000000" stroke="none" 
	d="
M239.066467,105.917885 
	C240.544983,106.036003 242.023499,106.154121 243.502029,106.272240 
	C243.411819,106.839668 243.321594,107.407097 243.231384,107.974525 
	C241.857697,107.574173 240.484009,107.173813 239.055267,106.383102 
	C239.000229,105.992737 239.066467,105.917885 239.066467,105.917885 
z"/>
<path fill="#EDEEF6" opacity="1.000000" stroke="none" 
	d="
M238.963272,106.026398 
	C238.813019,105.877090 238.699722,105.694130 238.586411,105.511177 
	C238.695267,105.551346 238.804123,105.591522 238.989716,105.774788 
	C239.066467,105.917885 239.000229,105.992737 238.963272,106.026398 
z"/>
<path fill="#EDEEF6" opacity="1.000000" stroke="none" 
	d="
M239.074860,103.060638 
	C238.931091,103.062202 238.787308,103.063774 238.821152,103.028702 
	C238.998764,102.992058 239.074860,103.060638 239.074860,103.060638 
z"/>
<path fill="#EDEEF6" opacity="1.000000" stroke="none" 
	d="
M240.023865,102.032242 
	C239.942535,102.374161 239.757034,102.629951 239.284515,102.945129 
	C239.074860,103.060638 238.998764,102.992058 238.963959,102.952759 
	C239.043777,102.602882 239.237213,102.353439 239.723114,102.057022 
	C239.936737,101.948914 239.997040,102.002235 240.023865,102.032242 
z"/>
<path fill="#EEF0F4" opacity="1.000000" stroke="none" 
	d="
M207.080078,62.549324 
	C208.116623,62.945820 209.103638,63.329506 209.416733,64.019150 
	C211.942642,69.582970 215.867905,72.089737 221.615311,70.441261 
	C223.841354,69.802780 226.482559,67.165207 226.954041,65.005890 
	C227.297592,63.432426 224.793152,60.436661 222.846588,59.349918 
	C219.875076,57.690971 216.232117,57.285404 212.976974,56.072075 
	C207.914230,54.184971 205.240631,49.869377 206.054962,45.355885 
	C206.945068,40.422459 210.959625,37.200699 216.296188,36.885693 
	C221.953629,36.551739 227.011490,37.390549 229.660751,43.204895 
	C231.036652,46.224609 230.683853,48.428120 226.585785,48.180901 
	C224.448715,41.656364 219.600815,39.089672 214.047546,41.940651 
	C212.413055,42.779778 210.689819,44.978100 210.538956,46.688614 
	C210.419022,48.048534 212.343613,50.188404 213.875427,50.960804 
	C216.496658,52.282532 219.531677,52.770710 222.373398,53.670624 
	C229.178604,55.825687 232.832672,60.583549 231.759476,65.829727 
	C230.516083,71.907837 224.762543,76.033302 218.057953,75.654160 
	C211.657181,75.292198 206.382767,71.619804 205.342529,66.416344 
	C205.120636,65.306366 206.224960,63.931252 207.080078,62.549324 
z"/>
<path fill="#EDEFF4" opacity="1.000000" stroke="none" 
	d="
M237.917145,57.827061 
	C238.219879,54.441456 238.231216,51.415226 238.985474,48.587135 
	C240.943939,41.243851 245.953934,37.107353 252.564789,36.905151 
	C261.064362,36.645176 266.388977,40.007469 268.898529,47.723495 
	C270.838501,53.688194 270.756073,59.719677 268.326660,65.643135 
	C265.713318,72.015144 260.733978,75.445999 254.164734,75.520050 
	C247.579407,75.594292 242.421158,72.267014 239.899628,65.876503 
	C238.947815,63.464252 238.591843,60.816895 237.917145,57.827061 
M246.083252,67.344940 
	C252.946091,73.632881 262.281311,71.622139 264.384583,62.779610 
	C265.477814,58.183304 264.891937,52.895241 263.878967,48.174049 
	C262.901276,43.617222 259.160217,41.231689 254.215790,41.127712 
	C249.024155,41.018532 245.547729,43.511883 243.942352,48.192501 
	C241.767395,54.533699 241.561676,60.895447 246.083252,67.344940 
z"/>
<path fill="#EAECF3" opacity="1.000000" stroke="none" 
	d="
M300.433533,39.218521 
	C299.355682,40.415462 298.288605,41.815250 297.150970,41.875191 
	C292.346466,42.128323 287.520966,41.982388 282.354858,41.982388 
	C282.354858,45.683243 282.354858,49.223438 282.354858,53.285370 
	C286.333496,53.285370 290.276184,53.234138 294.216888,53.300850 
	C297.650269,53.358978 297.649261,53.417782 297.401245,57.695541 
	C292.496948,57.695541 287.558502,57.695541 282.203766,57.695541 
	C282.203766,63.494606 282.203766,68.915222 282.203766,74.750320 
	C280.594360,74.825890 279.380890,74.882866 277.915955,74.951653 
	C277.915955,62.444935 277.915955,50.194672 277.915955,37.354713 
	C285.103455,37.354713 292.176941,37.331543 299.249115,37.416592 
	C299.642181,37.421318 300.024506,38.321602 300.433533,39.218521 
z"/>
<path fill="#DFE1ED" opacity="1.000000" stroke="none" 
	d="
M319.980591,37.193447 
	C323.139496,37.193977 325.812744,37.327232 328.467407,37.161858 
	C331.897797,36.948158 332.467560,38.611401 331.515411,41.904205 
	C328.211426,41.904205 324.790222,41.904205 320.871155,41.904205 
	C320.871155,53.096043 320.871155,63.829884 320.871155,74.790085 
	C319.125610,74.790085 317.885590,74.790085 316.329468,74.790085 
	C316.329468,63.945507 316.329468,53.323215 316.329468,42.160576 
	C312.467102,42.160576 308.900665,42.160576 305.111816,42.160576 
	C305.111816,40.357548 305.111816,39.095158 305.111816,37.193413 
	C309.931549,37.193413 314.709106,37.193413 319.980591,37.193447 
z"/>
<path fill="#F2F4F9" opacity="1.000000" stroke="none" 
	d="
M40.406097,59.388771 
	C39.094288,70.516861 34.130035,74.948883 23.349550,74.989456 
	C20.062550,75.001831 16.775461,74.991371 13.209297,74.991371 
	C13.209297,62.322422 13.209297,50.120773 13.209297,37.940716 
	C32.299576,35.375427 41.582573,38.364143 40.406097,59.388771 
M35.640812,60.748081 
	C35.438980,56.652000 36.037125,52.282734 34.763367,48.552700 
	C33.864685,45.921024 30.758436,43.223270 28.033381,42.253670 
	C24.987576,41.169945 21.259052,42.004993 17.693375,42.004993 
	C17.693375,51.802570 17.693375,61.033436 17.693375,70.225311 
	C29.647062,71.662926 34.737675,68.616112 35.640812,60.748081 
z"/>
<path fill="#F1F3F9" opacity="1.000000" stroke="none" 
	d="
M69.870102,57.163353 
	C72.029243,63.122517 74.080536,68.707130 76.170815,74.397896 
	C72.575615,75.833366 70.794899,74.810905 69.824219,71.283981 
	C69.106613,68.676582 68.130882,64.678406 66.376518,64.123123 
	C62.747829,62.974571 58.261589,62.874802 54.650696,64.008461 
	C52.753323,64.604156 51.624107,68.603867 50.755466,71.264740 
	C49.777145,74.261597 48.626369,76.071426 44.796558,74.361931 
	C48.840324,62.691971 52.839069,50.960487 57.064198,39.311108 
	C57.413498,38.348022 59.371727,37.319000 60.446690,37.448364 
	C61.556705,37.581947 62.973602,38.899826 63.437584,40.034393 
	C65.696312,45.557648 67.680733,51.193081 69.870102,57.163353 
M58.703648,59.123390 
	C60.790241,59.123390 62.876835,59.123390 65.766991,59.123390 
	C63.817513,53.518597 62.154198,48.736523 60.053055,42.695686 
	C58.215809,48.161762 57.008678,52.093994 55.561127,55.935638 
	C54.651360,58.350040 55.183197,59.375557 58.703648,59.123390 
z"/>
<path fill="#ECEEF8" opacity="1.000000" stroke="none" 
	d="
M85.729523,63.913757 
	C85.729362,66.351364 85.729362,68.300308 85.729362,70.800224 
	C90.555763,70.800224 94.841934,70.614655 99.093002,70.919167 
	C100.287819,71.004761 101.379532,72.529755 102.518532,73.394524 
	C102.249809,73.838104 101.981087,74.281685 101.712372,74.725266 
	C94.994156,74.725266 88.275940,74.725266 80.947960,74.725266 
	C80.947960,62.837959 80.901978,51.110397 81.061157,39.385624 
	C81.070793,38.675247 82.711563,37.987015 83.593369,37.288479 
	C84.304214,38.363049 85.605255,39.423668 85.631035,40.514431 
	C85.811493,48.147827 85.728424,55.787460 85.729523,63.913757 
z"/>
<path fill="#FAFCFB" opacity="1.000000" stroke="none" 
	d="
M114.141060,56.999413 
	C114.141136,63.114346 114.141136,68.729752 114.141136,74.370865 
	C110.876678,75.636627 109.661606,74.822037 109.695953,71.533325 
	C109.803398,61.246693 109.660164,50.956917 109.840614,40.672333 
	C109.860344,39.547615 111.349716,38.448681 112.157440,37.337784 
	C112.817749,38.415340 114.006912,39.472893 114.048538,40.573845 
	C114.249046,45.876106 114.140106,51.190075 114.141060,56.999413 
z"/>
<path fill="#4A5FD5" opacity="1.000000" stroke="none" 
	d="
M157.569962,48.975800 
	C157.601776,51.940113 157.517166,54.906246 157.369339,57.869225 
	C157.230179,60.658096 157.024384,63.443638 156.847916,66.230644 
	C156.343689,66.193169 155.839478,66.155701 155.335251,66.118233 
	C155.913986,60.667496 156.492737,55.216759 157.104736,49.375462 
	C157.137985,48.984898 157.425934,48.976242 157.569962,48.975800 
z"/>
<path fill="#0A1B88" opacity="1.000000" stroke="none" 
	d="
M245.806412,67.074280 
	C241.561676,60.895447 241.767395,54.533699 243.942352,48.192501 
	C245.547729,43.511883 249.024155,41.018532 254.215790,41.127712 
	C259.160217,41.231689 262.901276,43.617222 263.878967,48.174049 
	C264.891937,52.895241 265.477814,58.183304 264.384583,62.779610 
	C262.281311,71.622139 252.946091,73.632881 245.806412,67.074280 
z"/>
<path fill="#4258D3" opacity="1.000000" stroke="none" 
	d="
M35.518265,61.153740 
	C34.737675,68.616112 29.647062,71.662926 17.693375,70.225311 
	C17.693375,61.033436 17.693375,51.802570 17.693375,42.004993 
	C21.259052,42.004993 24.987576,41.169945 28.033381,42.253670 
	C30.758436,43.223270 33.864685,45.921024 34.763367,48.552700 
	C36.037125,52.282734 35.438980,56.652000 35.518265,61.153740 
z"/>
<path fill="#4459D4" opacity="1.000000" stroke="none" 
	d="
M58.253784,59.122818 
	C55.183197,59.375557 54.651360,58.350040 55.561127,55.935638 
	C57.008678,52.093994 58.215809,48.161762 60.053055,42.695686 
	C62.154198,48.736523 63.817513,53.518597 65.766991,59.123390 
	C62.876835,59.123390 60.790241,59.123390 58.253784,59.122818 
z"/>
</svg>